<mxfile host="app.diagrams.net" modified="2023-05-12T07:50:39.475Z" agent="Mozilla/5.0 (X11; Linux x86_64; rv:108.0) Gecko/20100101 Firefox/108.0" etag="EY7pWINK4-PlaZXjpG0W" version="21.2.9" type="device">
  <diagram id="-NXmI7Wv_sdBQDqE17hC" name="Page-2">
    <mxGraphModel dx="2537" dy="845" grid="1" gridSize="10" guides="1" tooltips="1" connect="1" arrows="1" fold="1" page="1" pageScale="1" pageWidth="850" pageHeight="1100" math="0" shadow="0">
      <root>
        <mxCell id="0" />
        <mxCell id="1" parent="0" />
        <mxCell id="QRJg1duBVctbzzN5eANS-1" value="" style="shape=umlLifeline;perimeter=lifelinePerimeter;whiteSpace=wrap;html=1;container=1;dropTarget=0;collapsible=0;recursiveResize=0;outlineConnect=0;portConstraint=eastwest;newEdgeStyle={&quot;edgeStyle&quot;:&quot;elbowEdgeStyle&quot;,&quot;elbow&quot;:&quot;vertical&quot;,&quot;curved&quot;:0,&quot;rounded&quot;:0};participant=umlActor;" parent="1" vertex="1">
          <mxGeometry x="-15" y="16" width="20" height="804" as="geometry" />
        </mxCell>
        <mxCell id="ODjSJZg0g-i-pk7uRBc_-1" value="Сотрудник" style="text;align=center;fontStyle=1;verticalAlign=middle;spacingLeft=3;spacingRight=3;strokeColor=none;rotatable=0;points=[[0,0.5],[1,0.5]];portConstraint=eastwest;html=1;" parent="1" vertex="1">
          <mxGeometry x="-45" y="50" width="80" height="26" as="geometry" />
        </mxCell>
        <mxCell id="k0yB-UVR4E2PltJqJaCU-1" value="Интерфейс" style="shape=umlLifeline;perimeter=lifelinePerimeter;whiteSpace=wrap;html=1;container=1;dropTarget=0;collapsible=0;recursiveResize=0;outlineConnect=0;portConstraint=eastwest;newEdgeStyle={&quot;edgeStyle&quot;:&quot;elbowEdgeStyle&quot;,&quot;elbow&quot;:&quot;vertical&quot;,&quot;curved&quot;:0,&quot;rounded&quot;:0};" parent="1" vertex="1">
          <mxGeometry x="160" y="16" width="100" height="784" as="geometry" />
        </mxCell>
        <mxCell id="k0yB-UVR4E2PltJqJaCU-2" value="" style="html=1;points=[];perimeter=orthogonalPerimeter;outlineConnect=0;targetShapes=umlLifeline;portConstraint=eastwest;newEdgeStyle={&quot;edgeStyle&quot;:&quot;elbowEdgeStyle&quot;,&quot;elbow&quot;:&quot;vertical&quot;,&quot;curved&quot;:0,&quot;rounded&quot;:0};" parent="k0yB-UVR4E2PltJqJaCU-1" vertex="1">
          <mxGeometry x="45" y="66" width="10" height="254" as="geometry" />
        </mxCell>
        <mxCell id="8wjSeC93D_TFEQf0fsNh-21" value="" style="html=1;points=[];perimeter=orthogonalPerimeter;outlineConnect=0;targetShapes=umlLifeline;portConstraint=eastwest;newEdgeStyle={&quot;edgeStyle&quot;:&quot;elbowEdgeStyle&quot;,&quot;elbow&quot;:&quot;vertical&quot;,&quot;curved&quot;:0,&quot;rounded&quot;:0};" parent="k0yB-UVR4E2PltJqJaCU-1" vertex="1">
          <mxGeometry x="45" y="454" width="10" height="136" as="geometry" />
        </mxCell>
        <mxCell id="8wjSeC93D_TFEQf0fsNh-33" value="" style="html=1;points=[];perimeter=orthogonalPerimeter;outlineConnect=0;targetShapes=umlLifeline;portConstraint=eastwest;newEdgeStyle={&quot;edgeStyle&quot;:&quot;elbowEdgeStyle&quot;,&quot;elbow&quot;:&quot;vertical&quot;,&quot;curved&quot;:0,&quot;rounded&quot;:0};" parent="k0yB-UVR4E2PltJqJaCU-1" vertex="1">
          <mxGeometry x="45" y="684" width="10" height="46" as="geometry" />
        </mxCell>
        <mxCell id="k0yB-UVR4E2PltJqJaCU-4" value="Система X" style="shape=umlLifeline;perimeter=lifelinePerimeter;whiteSpace=wrap;html=1;container=1;dropTarget=0;collapsible=0;recursiveResize=0;outlineConnect=0;portConstraint=eastwest;newEdgeStyle={&quot;edgeStyle&quot;:&quot;elbowEdgeStyle&quot;,&quot;elbow&quot;:&quot;vertical&quot;,&quot;curved&quot;:0,&quot;rounded&quot;:0};" parent="1" vertex="1">
          <mxGeometry x="340" y="16" width="100" height="774" as="geometry" />
        </mxCell>
        <mxCell id="k0yB-UVR4E2PltJqJaCU-5" value="" style="html=1;points=[];perimeter=orthogonalPerimeter;outlineConnect=0;targetShapes=umlLifeline;portConstraint=eastwest;newEdgeStyle={&quot;edgeStyle&quot;:&quot;elbowEdgeStyle&quot;,&quot;elbow&quot;:&quot;vertical&quot;,&quot;curved&quot;:0,&quot;rounded&quot;:0};" parent="k0yB-UVR4E2PltJqJaCU-4" vertex="1">
          <mxGeometry x="45" y="66" width="10" height="244" as="geometry" />
        </mxCell>
        <mxCell id="8wjSeC93D_TFEQf0fsNh-19" value="" style="html=1;points=[];perimeter=orthogonalPerimeter;outlineConnect=0;targetShapes=umlLifeline;portConstraint=eastwest;newEdgeStyle={&quot;edgeStyle&quot;:&quot;elbowEdgeStyle&quot;,&quot;elbow&quot;:&quot;vertical&quot;,&quot;curved&quot;:0,&quot;rounded&quot;:0};" parent="k0yB-UVR4E2PltJqJaCU-4" vertex="1">
          <mxGeometry x="45" y="454" width="10" height="106" as="geometry" />
        </mxCell>
        <mxCell id="8wjSeC93D_TFEQf0fsNh-28" value="" style="html=1;points=[];perimeter=orthogonalPerimeter;outlineConnect=0;targetShapes=umlLifeline;portConstraint=eastwest;newEdgeStyle={&quot;edgeStyle&quot;:&quot;elbowEdgeStyle&quot;,&quot;elbow&quot;:&quot;vertical&quot;,&quot;curved&quot;:0,&quot;rounded&quot;:0};" parent="k0yB-UVR4E2PltJqJaCU-4" vertex="1">
          <mxGeometry x="45" y="644" width="10" height="56" as="geometry" />
        </mxCell>
        <mxCell id="k0yB-UVR4E2PltJqJaCU-7" value="Сервер&lt;br&gt;система Y" style="shape=umlLifeline;perimeter=lifelinePerimeter;whiteSpace=wrap;html=1;container=1;dropTarget=0;collapsible=0;recursiveResize=0;outlineConnect=0;portConstraint=eastwest;newEdgeStyle={&quot;edgeStyle&quot;:&quot;elbowEdgeStyle&quot;,&quot;elbow&quot;:&quot;vertical&quot;,&quot;curved&quot;:0,&quot;rounded&quot;:0};" parent="1" vertex="1">
          <mxGeometry x="510" y="16" width="100" height="834" as="geometry" />
        </mxCell>
        <mxCell id="k0yB-UVR4E2PltJqJaCU-9" value="" style="html=1;points=[];perimeter=orthogonalPerimeter;outlineConnect=0;targetShapes=umlLifeline;portConstraint=eastwest;newEdgeStyle={&quot;edgeStyle&quot;:&quot;elbowEdgeStyle&quot;,&quot;elbow&quot;:&quot;vertical&quot;,&quot;curved&quot;:0,&quot;rounded&quot;:0};" parent="k0yB-UVR4E2PltJqJaCU-7" vertex="1">
          <mxGeometry x="45" y="264" width="10" height="90" as="geometry" />
        </mxCell>
        <mxCell id="8wjSeC93D_TFEQf0fsNh-15" value="" style="html=1;points=[];perimeter=orthogonalPerimeter;outlineConnect=0;targetShapes=umlLifeline;portConstraint=eastwest;newEdgeStyle={&quot;edgeStyle&quot;:&quot;elbowEdgeStyle&quot;,&quot;elbow&quot;:&quot;vertical&quot;,&quot;curved&quot;:0,&quot;rounded&quot;:0};" parent="k0yB-UVR4E2PltJqJaCU-7" vertex="1">
          <mxGeometry x="45" y="634" width="10" height="56" as="geometry" />
        </mxCell>
        <mxCell id="k0yB-UVR4E2PltJqJaCU-10" value="БД" style="shape=umlLifeline;perimeter=lifelinePerimeter;whiteSpace=wrap;html=1;container=1;dropTarget=0;collapsible=0;recursiveResize=0;outlineConnect=0;portConstraint=eastwest;newEdgeStyle={&quot;edgeStyle&quot;:&quot;elbowEdgeStyle&quot;,&quot;elbow&quot;:&quot;vertical&quot;,&quot;curved&quot;:0,&quot;rounded&quot;:0};" parent="1" vertex="1">
          <mxGeometry x="690" y="16" width="100" height="834" as="geometry" />
        </mxCell>
        <mxCell id="k0yB-UVR4E2PltJqJaCU-12" value="" style="html=1;points=[];perimeter=orthogonalPerimeter;outlineConnect=0;targetShapes=umlLifeline;portConstraint=eastwest;newEdgeStyle={&quot;edgeStyle&quot;:&quot;elbowEdgeStyle&quot;,&quot;elbow&quot;:&quot;vertical&quot;,&quot;curved&quot;:0,&quot;rounded&quot;:0};" parent="k0yB-UVR4E2PltJqJaCU-10" vertex="1">
          <mxGeometry x="45" y="310" width="10" height="60" as="geometry" />
        </mxCell>
        <mxCell id="8wjSeC93D_TFEQf0fsNh-8" value="" style="html=1;points=[];perimeter=orthogonalPerimeter;outlineConnect=0;targetShapes=umlLifeline;portConstraint=eastwest;newEdgeStyle={&quot;edgeStyle&quot;:&quot;elbowEdgeStyle&quot;,&quot;elbow&quot;:&quot;vertical&quot;,&quot;curved&quot;:0,&quot;rounded&quot;:0};" parent="k0yB-UVR4E2PltJqJaCU-10" vertex="1">
          <mxGeometry x="45" y="624" width="10" height="110" as="geometry" />
        </mxCell>
        <mxCell id="ORBro8uWiHtevkY24l4x-1" value="&lt;font style=&quot;font-size: 9px;&quot;&gt;3: Открытие формы &lt;br&gt;&lt;/font&gt;" style="html=1;verticalAlign=bottom;endArrow=open;dashed=1;endSize=8;edgeStyle=elbowEdgeStyle;elbow=vertical;curved=0;rounded=0;" parent="1" source="k0yB-UVR4E2PltJqJaCU-5" target="k0yB-UVR4E2PltJqJaCU-2" edge="1">
          <mxGeometry x="-0.0028" relative="1" as="geometry">
            <mxPoint x="380" y="120" as="sourcePoint" />
            <mxPoint x="220" y="120" as="targetPoint" />
            <Array as="points">
              <mxPoint x="310" y="170" />
              <mxPoint x="270" y="160" />
              <mxPoint x="260" y="140" />
              <mxPoint x="345" y="120" />
              <mxPoint x="335" y="130" />
              <mxPoint x="355" y="140" />
            </Array>
            <mxPoint as="offset" />
          </mxGeometry>
        </mxCell>
        <mxCell id="Rq0KjJXhQ3W13WXZxtJH-1" value="&lt;font style=&quot;font-size: 9px;&quot;&gt;4:Ввод данных &lt;/font&gt;&lt;font style=&quot;font-size: 9px;&quot;&gt;документа&lt;/font&gt;" style="html=1;verticalAlign=bottom;endArrow=block;edgeStyle=elbowEdgeStyle;elbow=vertical;curved=0;rounded=0;" parent="1" source="k0yB-UVR4E2PltJqJaCU-13" target="k0yB-UVR4E2PltJqJaCU-2" edge="1">
          <mxGeometry x="0.0732" width="80" relative="1" as="geometry">
            <mxPoint x="30" y="190" as="sourcePoint" />
            <mxPoint x="200" y="200" as="targetPoint" />
            <Array as="points">
              <mxPoint x="110" y="280" />
              <mxPoint x="170" y="270" />
              <mxPoint x="100" y="250" />
              <mxPoint x="150" y="210" />
              <mxPoint x="40" y="190" />
            </Array>
            <mxPoint as="offset" />
          </mxGeometry>
        </mxCell>
        <mxCell id="8wjSeC93D_TFEQf0fsNh-4" value="&lt;font style=&quot;font-size: 9px;&quot;&gt;5: Отправка&amp;nbsp; запроса &quot;Регистрация &lt;br&gt;документа&quot;&lt;br&gt;&lt;/font&gt;" style="html=1;verticalAlign=bottom;endArrow=block;edgeStyle=elbowEdgeStyle;elbow=vertical;curved=0;rounded=0;" parent="1" source="k0yB-UVR4E2PltJqJaCU-2" target="k0yB-UVR4E2PltJqJaCU-5" edge="1">
          <mxGeometry width="80" relative="1" as="geometry">
            <mxPoint x="220" y="530" as="sourcePoint" />
            <mxPoint x="380" y="530" as="targetPoint" />
            <Array as="points">
              <mxPoint x="290" y="300" />
              <mxPoint x="300" y="530" />
              <mxPoint x="280" y="540" />
              <mxPoint x="370" y="550" />
              <mxPoint x="290" y="550" />
              <mxPoint x="200" y="560" />
            </Array>
            <mxPoint as="offset" />
          </mxGeometry>
        </mxCell>
        <mxCell id="8wjSeC93D_TFEQf0fsNh-5" value="&lt;font style=&quot;font-size: 9px;&quot;&gt;6:&lt;/font&gt;&lt;font style=&quot;font-size: 9px;&quot;&gt;Отправка&amp;nbsp; запроса &quot;Регистрация &lt;br&gt;документа&quot;&lt;/font&gt;" style="html=1;verticalAlign=bottom;endArrow=block;edgeStyle=elbowEdgeStyle;elbow=vertical;curved=0;rounded=0;" parent="1" source="k0yB-UVR4E2PltJqJaCU-5" target="k0yB-UVR4E2PltJqJaCU-9" edge="1">
          <mxGeometry x="0.0625" width="80" relative="1" as="geometry">
            <mxPoint x="400" y="590" as="sourcePoint" />
            <mxPoint x="520" y="590" as="targetPoint" />
            <Array as="points">
              <mxPoint x="500" y="320" />
              <mxPoint x="420" y="600" />
              <mxPoint x="510" y="610" />
              <mxPoint x="430" y="610" />
              <mxPoint x="340" y="620" />
            </Array>
            <mxPoint as="offset" />
          </mxGeometry>
        </mxCell>
        <mxCell id="8wjSeC93D_TFEQf0fsNh-6" value="&lt;font style=&quot;font-size: 9px;&quot;&gt;7: Валидация данных&lt;br&gt;&lt;/font&gt;" style="html=1;verticalAlign=bottom;endArrow=block;edgeStyle=elbowEdgeStyle;elbow=vertical;curved=0;rounded=0;" parent="1" source="k0yB-UVR4E2PltJqJaCU-9" target="k0yB-UVR4E2PltJqJaCU-12" edge="1">
          <mxGeometry x="-0.1176" width="80" relative="1" as="geometry">
            <mxPoint x="580" y="620" as="sourcePoint" />
            <mxPoint x="720" y="620" as="targetPoint" />
            <Array as="points">
              <mxPoint x="670" y="350" />
              <mxPoint x="605" y="620" />
              <mxPoint x="585" y="630" />
              <mxPoint x="675" y="640" />
              <mxPoint x="595" y="640" />
              <mxPoint x="505" y="650" />
            </Array>
            <mxPoint as="offset" />
          </mxGeometry>
        </mxCell>
        <mxCell id="8wjSeC93D_TFEQf0fsNh-9" value="Alt" style="shape=umlFrame;whiteSpace=wrap;html=1;pointerEvents=0;recursiveResize=0;container=1;collapsible=0;width=30;height=20;" parent="1" vertex="1">
          <mxGeometry x="550" y="390" width="240" height="410" as="geometry" />
        </mxCell>
        <mxCell id="8wjSeC93D_TFEQf0fsNh-10" value="&lt;font style=&quot;font-size: 9px;&quot;&gt;[Валидация прошла&lt;br&gt;успешно]&lt;/font&gt;" style="text;html=1;" parent="8wjSeC93D_TFEQf0fsNh-9" vertex="1">
          <mxGeometry width="100" height="20" relative="1" as="geometry">
            <mxPoint x="50" as="offset" />
          </mxGeometry>
        </mxCell>
        <mxCell id="8wjSeC93D_TFEQf0fsNh-11" value="" style="line;strokeWidth=1;dashed=1;labelPosition=center;verticalLabelPosition=bottom;align=left;verticalAlign=top;spacingLeft=20;spacingTop=15;html=1;whiteSpace=wrap;" parent="8wjSeC93D_TFEQf0fsNh-9" vertex="1">
          <mxGeometry y="120" width="240" height="170" as="geometry" />
        </mxCell>
        <mxCell id="8wjSeC93D_TFEQf0fsNh-12" value="&lt;font style=&quot;font-size: 9px;&quot;&gt;[&lt;/font&gt;&lt;font style=&quot;font-size: 9px;&quot;&gt;Валидация прошла&lt;br&gt;не успешно&lt;/font&gt;&lt;font style=&quot;font-size: 9px;&quot;&gt;]&lt;/font&gt;" style="text;whiteSpace=wrap;html=1;" parent="8wjSeC93D_TFEQf0fsNh-9" vertex="1">
          <mxGeometry x="40" y="210" width="120" height="50" as="geometry" />
        </mxCell>
        <mxCell id="8wjSeC93D_TFEQf0fsNh-7" value="" style="html=1;points=[];perimeter=orthogonalPerimeter;outlineConnect=0;targetShapes=umlLifeline;portConstraint=eastwest;newEdgeStyle={&quot;edgeStyle&quot;:&quot;elbowEdgeStyle&quot;,&quot;elbow&quot;:&quot;vertical&quot;,&quot;curved&quot;:0,&quot;rounded&quot;:0};" parent="8wjSeC93D_TFEQf0fsNh-9" vertex="1">
          <mxGeometry x="185" y="40" width="10" height="130" as="geometry" />
        </mxCell>
        <mxCell id="8wjSeC93D_TFEQf0fsNh-14" value="" style="html=1;points=[];perimeter=orthogonalPerimeter;outlineConnect=0;targetShapes=umlLifeline;portConstraint=eastwest;newEdgeStyle={&quot;edgeStyle&quot;:&quot;elbowEdgeStyle&quot;,&quot;elbow&quot;:&quot;vertical&quot;,&quot;curved&quot;:0,&quot;rounded&quot;:0};" parent="8wjSeC93D_TFEQf0fsNh-9" vertex="1">
          <mxGeometry y="30" width="10" height="150" as="geometry" />
        </mxCell>
        <mxCell id="8wjSeC93D_TFEQf0fsNh-17" value="&lt;font style=&quot;font-size: 9px;&quot;&gt;10: Отправка положительного ответа&amp;nbsp; &lt;/font&gt;" style="html=1;verticalAlign=bottom;endArrow=open;dashed=1;endSize=8;edgeStyle=elbowEdgeStyle;elbow=vertical;curved=0;rounded=0;" parent="8wjSeC93D_TFEQf0fsNh-9" source="8wjSeC93D_TFEQf0fsNh-7" target="8wjSeC93D_TFEQf0fsNh-14" edge="1">
          <mxGeometry x="0.056" relative="1" as="geometry">
            <mxPoint x="130" y="350" as="sourcePoint" />
            <mxPoint x="40" y="130" as="targetPoint" />
            <Array as="points">
              <mxPoint x="130" y="130" />
              <mxPoint x="67.5" y="349.52" />
              <mxPoint x="57.5" y="359.52" />
              <mxPoint x="77.5" y="369.52" />
            </Array>
            <mxPoint as="offset" />
          </mxGeometry>
        </mxCell>
        <mxCell id="8wjSeC93D_TFEQf0fsNh-18" value="&lt;font style=&quot;font-size: 9px;&quot;&gt;8: Отправка ответа &lt;/font&gt;&lt;font style=&quot;font-size: 9px;&quot;&gt;&quot;Данных нет&quot;&lt;/font&gt;" style="html=1;verticalAlign=bottom;endArrow=open;dashed=1;endSize=8;edgeStyle=elbowEdgeStyle;elbow=vertical;curved=0;rounded=0;" parent="8wjSeC93D_TFEQf0fsNh-9" source="8wjSeC93D_TFEQf0fsNh-7" target="8wjSeC93D_TFEQf0fsNh-14" edge="1">
          <mxGeometry x="0.0532" relative="1" as="geometry">
            <mxPoint x="155" y="400.48" as="sourcePoint" />
            <mxPoint x="-35" y="410" as="targetPoint" />
            <Array as="points">
              <mxPoint x="110" y="70" />
              <mxPoint x="100" y="60" />
              <mxPoint x="90" y="410" />
              <mxPoint x="87.5" y="400" />
              <mxPoint x="77.5" y="410" />
              <mxPoint x="97.5" y="420" />
            </Array>
            <mxPoint as="offset" />
          </mxGeometry>
        </mxCell>
        <mxCell id="8wjSeC93D_TFEQf0fsNh-13" value="&lt;font style=&quot;font-size: 9px;&quot;&gt;9: Сохранение данных&lt;br&gt;&lt;/font&gt;" style="html=1;verticalAlign=bottom;endArrow=block;edgeStyle=elbowEdgeStyle;elbow=vertical;curved=0;rounded=0;" parent="8wjSeC93D_TFEQf0fsNh-9" source="8wjSeC93D_TFEQf0fsNh-14" target="8wjSeC93D_TFEQf0fsNh-7" edge="1">
          <mxGeometry width="80" relative="1" as="geometry">
            <mxPoint x="-35" y="360" as="sourcePoint" />
            <mxPoint x="155" y="360" as="targetPoint" />
            <Array as="points">
              <mxPoint x="130" y="100" />
              <mxPoint x="70" y="380" />
              <mxPoint x="60" y="370" />
              <mxPoint x="40" y="370" />
              <mxPoint x="130" y="380" />
              <mxPoint x="50" y="380" />
              <mxPoint x="-40" y="390" />
            </Array>
            <mxPoint as="offset" />
          </mxGeometry>
        </mxCell>
        <mxCell id="8wjSeC93D_TFEQf0fsNh-16" value="&lt;font style=&quot;font-size: 9px;&quot;&gt;13: Отправка ответа &quot;&lt;/font&gt;&lt;font style=&quot;font-size: 9px;&quot;&gt;Документ&lt;/font&gt;&lt;font style=&quot;font-size: 9px;&quot;&gt; с такими &lt;br&gt;данными есть&quot; &lt;/font&gt;" style="html=1;verticalAlign=bottom;endArrow=open;dashed=1;endSize=8;edgeStyle=elbowEdgeStyle;elbow=vertical;curved=0;rounded=0;" parent="1" source="8wjSeC93D_TFEQf0fsNh-8" target="8wjSeC93D_TFEQf0fsNh-15" edge="1">
          <mxGeometry relative="1" as="geometry">
            <mxPoint x="775" y="930.48" as="sourcePoint" />
            <mxPoint x="560" y="930.48" as="targetPoint" />
            <Array as="points">
              <mxPoint x="640" y="680" />
              <mxPoint x="647.5" y="940" />
              <mxPoint x="667.5" y="950" />
            </Array>
            <mxPoint as="offset" />
          </mxGeometry>
        </mxCell>
        <mxCell id="8wjSeC93D_TFEQf0fsNh-20" value="&lt;font style=&quot;font-size: 9px;&quot;&gt;11: Отправка положительного &lt;br&gt;сообщения &lt;/font&gt;" style="html=1;verticalAlign=bottom;endArrow=open;dashed=1;endSize=8;edgeStyle=elbowEdgeStyle;elbow=vertical;curved=0;rounded=0;" parent="1" source="8wjSeC93D_TFEQf0fsNh-14" target="8wjSeC93D_TFEQf0fsNh-19" edge="1">
          <mxGeometry x="0.0542" relative="1" as="geometry">
            <mxPoint x="550" y="750" as="sourcePoint" />
            <mxPoint x="400" y="750" as="targetPoint" />
            <Array as="points">
              <mxPoint x="490" y="530" />
              <mxPoint x="500" y="500" />
              <mxPoint x="465" y="750" />
              <mxPoint x="462.5" y="740" />
              <mxPoint x="452.5" y="750" />
              <mxPoint x="472.5" y="760" />
            </Array>
            <mxPoint as="offset" />
          </mxGeometry>
        </mxCell>
        <mxCell id="8wjSeC93D_TFEQf0fsNh-22" value="&lt;font style=&quot;font-size: 9px;&quot;&gt;12: Отправка положительного &lt;br&gt;сообщения в интерфейс&lt;br&gt;&lt;/font&gt;" style="html=1;verticalAlign=bottom;endArrow=open;dashed=1;endSize=8;edgeStyle=elbowEdgeStyle;elbow=vertical;curved=0;rounded=0;" parent="1" source="8wjSeC93D_TFEQf0fsNh-19" target="8wjSeC93D_TFEQf0fsNh-21" edge="1">
          <mxGeometry x="0.0555" relative="1" as="geometry">
            <mxPoint x="380" y="740" as="sourcePoint" />
            <mxPoint x="220" y="740" as="targetPoint" />
            <Array as="points">
              <mxPoint x="320" y="560" />
              <mxPoint x="287.5" y="730" />
              <mxPoint x="277.5" y="740" />
              <mxPoint x="297.5" y="750" />
            </Array>
            <mxPoint as="offset" />
          </mxGeometry>
        </mxCell>
        <mxCell id="8wjSeC93D_TFEQf0fsNh-29" value="" style="html=1;verticalAlign=bottom;endArrow=open;dashed=1;endSize=8;edgeStyle=elbowEdgeStyle;elbow=vertical;curved=0;rounded=0;" parent="1" source="8wjSeC93D_TFEQf0fsNh-15" target="8wjSeC93D_TFEQf0fsNh-28" edge="1">
          <mxGeometry x="0.2701" y="-20" relative="1" as="geometry">
            <mxPoint x="550" y="700" as="sourcePoint" />
            <mxPoint x="400" y="960" as="targetPoint" />
            <Array as="points">
              <mxPoint x="490" y="700" />
              <mxPoint x="545" y="960" />
              <mxPoint x="490" y="969.66" />
              <mxPoint x="510" y="979.66" />
            </Array>
            <mxPoint as="offset" />
          </mxGeometry>
        </mxCell>
        <mxCell id="8wjSeC93D_TFEQf0fsNh-32" value="&lt;font style=&quot;font-size: 9px;&quot;&gt;14: Отправка сообщения об ошибке&amp;nbsp;&lt;/font&gt;" style="text;whiteSpace=wrap;html=1;" parent="1" vertex="1">
          <mxGeometry x="410" y="660" width="140" height="30" as="geometry" />
        </mxCell>
        <mxCell id="8wjSeC93D_TFEQf0fsNh-37" value="&lt;div&gt;&lt;font style=&quot;font-size: 9px;&quot;&gt;15: Отправка сообщения об ошибке&lt;/font&gt;&lt;/div&gt;&lt;div&gt;&lt;font style=&quot;font-size: 9px;&quot;&gt;в интерфейс&lt;br&gt;&lt;/font&gt;&lt;/div&gt;" style="html=1;verticalAlign=bottom;endArrow=open;dashed=1;endSize=8;edgeStyle=elbowEdgeStyle;elbow=vertical;curved=0;rounded=0;" parent="1" source="8wjSeC93D_TFEQf0fsNh-28" target="8wjSeC93D_TFEQf0fsNh-33" edge="1">
          <mxGeometry relative="1" as="geometry">
            <mxPoint x="370" y="990" as="sourcePoint" />
            <mxPoint x="220" y="990" as="targetPoint" />
            <Array as="points">
              <mxPoint x="300" y="710" />
              <mxPoint x="302.5" y="990" />
              <mxPoint x="322.5" y="1000" />
            </Array>
            <mxPoint as="offset" />
          </mxGeometry>
        </mxCell>
        <mxCell id="k0yB-UVR4E2PltJqJaCU-13" value="" style="html=1;points=[];perimeter=orthogonalPerimeter;outlineConnect=0;targetShapes=umlLifeline;portConstraint=eastwest;newEdgeStyle={&quot;edgeStyle&quot;:&quot;elbowEdgeStyle&quot;,&quot;elbow&quot;:&quot;vertical&quot;,&quot;curved&quot;:0,&quot;rounded&quot;:0};" parent="1" vertex="1">
          <mxGeometry x="-10" y="96" width="10" height="684" as="geometry" />
        </mxCell>
        <mxCell id="We-C7hhaawtBZ6z4pr2A-1" value="&lt;font style=&quot;font-size: 9px;&quot;&gt;1: Запрос на окрытие формы&lt;br&gt;&quot;Регистрация документа&quot;&lt;br&gt;&lt;/font&gt;" style="html=1;verticalAlign=bottom;endArrow=block;edgeStyle=elbowEdgeStyle;elbow=vertical;curved=0;rounded=0;" parent="1" edge="1">
          <mxGeometry x="-0.05" width="80" relative="1" as="geometry">
            <mxPoint y="120" as="sourcePoint" />
            <mxPoint x="200" y="120" as="targetPoint" />
            <Array as="points">
              <mxPoint x="135" y="120" />
              <mxPoint x="195" y="140" />
              <mxPoint x="205" y="150" />
            </Array>
            <mxPoint as="offset" />
          </mxGeometry>
        </mxCell>
        <mxCell id="We-C7hhaawtBZ6z4pr2A-2" value="&lt;font style=&quot;font-size: 9px;&quot;&gt;2: Запрос на окрытие формы&lt;br&gt;&quot;Регистрация &lt;/font&gt;&lt;font style=&quot;font-size: 9px;&quot;&gt;документа&lt;/font&gt;&lt;font style=&quot;font-size: 9px;&quot;&gt;&quot;&lt;br&gt;&lt;/font&gt;" style="html=1;verticalAlign=bottom;endArrow=block;edgeStyle=elbowEdgeStyle;elbow=vertical;curved=0;rounded=0;" parent="1" source="k0yB-UVR4E2PltJqJaCU-2" target="k0yB-UVR4E2PltJqJaCU-5" edge="1">
          <mxGeometry x="-0.05" width="80" relative="1" as="geometry">
            <mxPoint x="225" y="130" as="sourcePoint" />
            <mxPoint x="425" y="130" as="targetPoint" />
            <Array as="points">
              <mxPoint x="360" y="130" />
              <mxPoint x="420" y="150" />
              <mxPoint x="430" y="160" />
            </Array>
            <mxPoint as="offset" />
          </mxGeometry>
        </mxCell>
      </root>
    </mxGraphModel>
  </diagram>
</mxfile>
